:FULLY-SPECIFIED
:FORCE-ALL-JOINTS-BE-3DOF
:DEGREES
469
root 10.9446 17.4708 30.3626 4.75825 2.55192 4.97074
lfemur -3.1242 4.25633 -31.0433
ltibia 17.6246 -0 0
lfoot -14.7401 3.83563 -0.0555133
ltoes 3.29376 -0 0
rfemur -33.6009 1.13329 12.1683
rtibia 63.2215 -0 0
rfoot -16.5221 -10.8004 -0.246043
rtoes -13.0277 0 0
lowerback -4.99064 -3.24204 -4.96223
upperback -1.12283 -4.06417 0.889136
thorax 1.9854 -2.06671 3.28594
lowerneck -21.8449 -3.11501 -10.9337
upperneck 25.0993 -3.63436 10.4109
head 12.3144 -1.316 5.22445
lclavicle -2.71031e-14 1.46638e-14 -4.32001e-30
lhumerus -16.8353 -16.3749 87.4911
lradius 24.6669 -0 0
lwrist -2.62594 0 0
lhand -13.1296 -24.7846 -0.0114934
lfingers 7.12502 -0 0
lthumb 12.969 4.80215 -0.00813405
rclavicle -2.71031e-14 1.46638e-14 -4.32001e-30
rhumerus -49.5644 9.02043 -87.5648
rradius 34.2995 -0 0
rwrist -14.0992 0 0
rhand -30.1126 -30.1217 0.0194462
rfingers 7.12502 -0 0
rthumb -3.42618 -60.0731 0.0187358
470
root 10.9493 17.4659 30.5342 4.73448 2.67983 5.11078
lfemur -2.06586 4.25911 -31.1353
ltibia 16.938 -0 0
lfoot -14.856 3.79812 -0.0583112
ltoes 3.44284 -0 0
rfemur -34.4265 1.46919 11.834
rtibia 62.5836 -0 0
rfoot -17.091 -10.8948 -0.2673
rtoes -12.5095 0 0
lowerback -4.97816 -3.37433 -5.07829
upperback -1.08633 -4.23359 0.869045
thorax 2.03453 -2.15385 3.3109
lowerneck -21.8944 -3.058 -10.8743
upperneck 25.1423 -3.57203 10.4109
head 12.3307 -1.28167 5.22664
lclavicle -2.54974e-14 1.53441e-14 -4.42179e-30
lhumerus -16.3376 -16.7004 87.3345
lradius 25.0185 -0 0
lwrist -2.3945 0 0
lhand -13.2477 -24.8747 -0.0128405
lfingers 7.12502 -0 0
lthumb 12.8551 4.72 -0.00922855
rclavicle -2.54974e-14 1.53441e-14 -4.42179e-30
rhumerus -49.7856 8.9214 -87.498
rradius 34.3246 -0 0
rwrist -14.2384 0 0
rhand -30.0813 -29.9385 0.0208666
rfingers 7.12502 -0 0
rthumb -3.39596 -59.8903 0.0201044
471
root 10.9533 17.4603 30.7034 4.71232 2.80754 5.24428
lfemur -1.01157 4.2564 -31.2164
ltibia 16.2394 -0 0
lfoot -14.9693 3.76462 -0.0608911
ltoes 3.58227 -0 0
rfemur -35.2336 1.81945 11.4996
rtibia 61.8792 -0 0
rfoot -17.6652 -10.9774 -0.288294
rtoes -11.98 0 0
lowerback -4.9686 -3.50495 -5.19029
upperback -1.04864 -4.40092 0.850462
thorax 2.08673 -2.24001 3.33548
lowerneck -21.9431 -3.00197 -10.8151
upperneck 25.1838 -3.51168 10.413
head 12.3466 -1.24799 5.22934
lclavicle -2.38295e-14 1.60087e-14 -4.49595e-30
lhumerus -15.8558 -17.0294 87.1792
lradius 25.3805 -0 0
lwrist -2.15022 0 0
lhand -13.3636 -24.9641 -0.0142133
lfingers 7.12502 -0 0
lthumb 12.7434 4.63835 -0.0103543
rclavicle -2.38295e-14 1.60087e-14 -4.49595e-30
rhumerus -49.9975 8.8239 -87.4291
rradius 34.3531 -0 0
rwrist -14.3829 0 0
rhand -30.0485 -29.7458 0.0222338
rfingers 7.12502 -0 0
rthumb -3.36432 -59.698 0.0214219
472
root 10.9565 17.454 30.8695 4.69182 2.93475 5.37067
lfemur 0.0361 4.24758 -31.2862
ltibia 15.5298 -0 0
lfoot -15.0795 3.73537 -0.0632203
ltoes 3.71133 -0 0
rfemur -36.0195 2.18431 11.1661
rtibia 61.1073 -0 0
rfoot -18.2439 -11.0475 -0.308758
rtoes -11.44 0 0
lowerback -4.96212 -3.63354 -5.29777
upperback -1.00979 -4.56568 0.833494
thorax 2.14203 -2.32495 3.35959
lowerneck -21.9908 -2.94711 -10.7564
upperneck 25.2235 -3.45354 10.4173
head 12.3622 -1.21507 5.23258
lclavicle -2.21004e-14 1.66553e-14 -4.54163e-30
lhumerus -15.3919 -17.3615 87.0258
lradius 25.7526 -0 0
lwrist -1.89312 0 0
lhand -13.4769 -25.0525 -0.0155937
lfingers 7.12502 -0 0
lthumb 12.6342 4.5574 -0.0114965
rclavicle -2.21004e-14 1.66553e-14 -4.54163e-30
rhumerus -50.1994 8.72822 -87.3584
rradius 34.3852 -0 0
rwrist -14.5326 0 0
rhand -30.0143 -29.5436 0.0235315
rfingers 7.12502 -0 0
rthumb -3.33129 -59.4963 0.0226723
473
root 10.9589 17.447 31.0322 4.67308 3.06114 5.48939
lfemur 1.07459 4.23202 -31.3442
ltibia 14.8102 -0 0
lfoot -15.1864 3.71062 -0.0652651
ltoes 3.82929 -0 0
rfemur -36.7817 2.56403 10.8341
rtibia 60.2667 -0 0
rfoot -18.8258 -11.1045 -0.328404
rtoes -10.8902 0 0
lowerback -4.95892 -3.75974 -5.4003
upperback -0.969824 -4.72741 0.818251
thorax 2.20043 -2.40844 3.38317
lowerneck -22.0375 -2.89359 -10.6984
upperneck 25.2614 -3.39783 10.4239
head 12.3772 -1.18301 5.23637
lclavicle -2.03113e-14 1.72819e-14 -4.55818e-30
lhumerus -14.9476 -17.6961 86.8751
lradius 26.1345 -0 0
lwrist -1.62322 0 0
lhand -13.5872 -25.1398 -0.0169619
lfingers 7.12502 -0 0
lthumb 12.528 4.47736 -0.0126387
rclavicle -2.03113e-14 1.72819e-14 -4.55818e-30
rhumerus -50.3904 8.63462 -87.2859
rradius 34.4209 -0 0
rwrist -14.6875 0 0
rhand -29.9787 -29.332 0.0247424
rfingers 7.12502 -0 0
rthumb -3.29687 -59.2852 0.0238392
474
root 10.9604 17.4392 31.1909 4.65616 3.18641 5.59987
lfemur 2.10133 4.20908 -31.3899
ltibia 14.0819 -0 0
lfoot -15.2894 3.6906 -0.0669919
ltoes 3.93545 -0 0
rfemur -37.5176 2.95895 10.5046
rtibia 59.3561 -0 0
rfoot -19.41 -11.1477 -0.346929
rtoes -10.3313 0 0
lowerback -4.95917 -3.8832 -5.49745
upperback -0.928796 -4.88564 0.804841
thorax 2.26196 -2.49024 3.40614
lowerneck -22.0831 -2.84159 -10.641
upperneck 25.2972 -3.34477 10.4328
head 12.3918 -1.15192 5.24072
lclavicle -1.84635e-14 1.78862e-14 -4.54519e-30
lhumerus -14.5249 -18.0329 86.7276
lradius 26.5258 -0 0
lwrist -1.34052 0 0
lhand -13.6941 -25.2256 -0.0182962
lfingers 7.12502 -0 0
lthumb 12.4249 4.39842 -0.0137627
rclavicle -1.84635e-14 1.78862e-14 -4.54519e-30
rhumerus -50.5696 8.54336 -87.2118
rradius 34.4604 -0 0
rwrist -14.8475 0 0
rhand -29.9416 -29.111 0.0258491
rfingers 7.12502 -0 0
rthumb -3.26108 -59.0648 0.0249056
475
root 10.961 17.4306 31.3452 4.64113 3.31024 5.70153
lfemur 3.11375 4.17809 -31.423
ltibia 13.3459 -0 0
lfoot -15.3883 3.67557 -0.0683663
ltoes 4.02907 -0 0
rfemur -38.2247 3.36946 10.1786
rtibia 58.3745 -0 0
rfoot -19.9953 -11.1764 -0.36401
rtoes -9.76401 0 0
lowerback -4.96305 -4.00357 -5.58877
upperback -0.88675 -5.03991 0.793376
thorax 2.32662 -2.57011 3.42842
lowerneck -22.1273 -2.79127 -10.5846
upperneck 25.3308 -3.29459 10.4441
head 12.4058 -1.1219 5.24564
lclavicle -1.6558e-14 1.84661e-14 -4.50245e-30
lhumerus -14.1257 -18.3715 86.5842
lradius 26.926 -0 0
lwrist -1.04504 0 0
lhand -13.7973 -25.3098 -0.019573
lfingers 7.12502 -0 0
lthumb 12.3254 4.32081 -0.0148489
rclavicle -1.6558e-14 1.84661e-14 -4.50245e-30
rhumerus -50.7362 8.45469 -87.1361
rradius 34.5036 -0 0
rwrist -15.0124 0 0
rhand -29.9031 -28.8807 0.0268332
rfingers 7.12502 -0 0
rthumb -3.22392 -58.835 0.0258539
